<svg width="62" height="54" viewBox="0 0 62 54" fill="none" xmlns="http://www.w3.org/2000/svg">
<g clip-path="url(#clip0_2257_2756)">
<path d="M23.0145 33.0988C23.0171 33.4392 23.0595 33.778 23.141 34.1084C23.2282 34.4583 23.3684 34.7927 23.5565 35.0998C24.1482 34.8353 24.6989 34.486 25.1914 34.0629C25.8764 33.4523 26.5136 32.7894 27.0973 32.0801C27.5309 31.5707 28.0999 30.8764 28.8045 29.9972L30.06 28.4327H29.1567C28.5877 28.4327 28.0548 28.4327 27.576 28.5237L26.727 28.6146C26.6801 28.9549 26.6015 29.2898 26.4921 29.6152C26.3443 30.0681 26.1112 30.4881 25.8056 30.8522C25.1176 31.6663 24.1499 32.1892 23.0958 32.3166C23.1071 32.4254 23.1071 32.5351 23.0958 32.644C23.0816 32.7922 23.0816 32.9415 23.0958 33.0897M23.3307 31.7708C23.7915 31.6542 24.2306 31.4638 24.6314 31.2069C24.9482 30.9966 25.234 30.7424 25.4805 30.452C25.7716 30.1197 26.012 29.7457 26.194 29.3423C26.2811 29.1559 26.3361 28.956 26.3566 28.7511C26.0065 28.8573 25.6652 28.9911 25.3359 29.1513C24.8984 29.3764 24.5088 29.6854 24.1888 30.0608C23.9111 30.3106 23.6735 30.6021 23.4842 30.9249C23.3668 31.1975 23.2878 31.4853 23.2494 31.7799L23.3307 31.7708ZM23.421 25.4676C21.7484 25.5906 20.172 26.3021 18.9679 27.4777C18.3473 27.9767 17.8324 28.5961 17.4538 29.2992C17.0752 30.0022 16.8406 30.7747 16.764 31.5707C16.7608 32.1283 16.8696 32.6809 17.0838 33.1951C17.298 33.7093 17.6132 34.1747 18.0105 34.5632C18.8282 35.3403 19.912 35.7703 21.0364 35.7638C21.5033 35.7603 21.9678 35.6961 22.4184 35.5728C22.7353 35.4915 23.0393 35.366 23.3217 35.1999C23.1596 34.857 23.0267 34.5011 22.9242 34.1357C22.8244 33.7683 22.7758 33.3887 22.7797 33.0078C22.7712 32.8442 22.7712 32.6803 22.7797 32.5167V32.2893C22.2327 32.3126 21.6961 32.1342 21.2704 31.7876C20.8447 31.441 20.5592 30.9499 20.4673 30.4065C20.4653 30.1123 20.5502 29.8242 20.7112 29.5788C20.8648 29.3787 20.9912 29.2786 21.0996 29.2786C21.1378 29.2661 21.1789 29.2661 21.2171 29.2786C21.2352 29.2922 21.2496 29.3102 21.2591 29.3308C21.2685 29.3515 21.2727 29.3742 21.2712 29.3969C21.2503 29.4802 21.2122 29.5581 21.1592 29.6255C21.1063 29.6929 21.0398 29.7483 20.9641 29.788C20.8657 29.8613 20.7864 29.9575 20.7329 30.0684C20.6795 30.1792 20.6534 30.3015 20.657 30.4247C20.657 31.6708 22.1203 31.789 22.8971 31.789C23.077 30.9911 23.4706 30.2581 24.0352 29.6697C24.6648 29.0648 25.44 28.6354 26.2844 28.4236V27.9325C26.2981 27.5656 26.223 27.2009 26.0657 26.8698C25.9083 26.5386 25.6734 26.2509 25.3811 26.0315C24.7988 25.6496 24.1158 25.453 23.421 25.4676ZM32.833 27.9689C33.2323 27.1553 33.6881 26.3712 34.197 25.6222C34.734 24.8339 35.3161 24.0777 35.9402 23.3574C37.1522 21.9439 38.5644 20.7179 40.1314 19.7192C38.7223 19.8374 36.0035 21.8475 34.5041 23.6757C33.7814 24.5125 33.1672 25.2766 32.6524 25.9951C32.1375 26.7137 31.6678 27.3686 31.2433 27.978L32.833 27.9689ZM23.8907 35.9275C23.5801 36.0341 23.2592 36.1072 22.9333 36.1458C22.5566 36.2044 22.1762 36.2348 21.7951 36.2368C20.4421 36.2644 19.1221 35.8138 18.0647 34.9634C17.5012 34.4816 17.0526 33.8782 16.7524 33.1979C16.4522 32.5177 16.3079 31.7781 16.3304 31.0341C16.3277 30.1384 16.5271 29.2537 16.9136 28.447C17.3001 27.6402 17.8635 26.9325 18.5615 26.3771C19.7128 25.3979 21.1563 24.8344 22.6623 24.7763C23.7731 24.7497 24.8511 25.1571 25.6701 25.9133C26.0022 26.2226 26.2686 26.5964 26.4534 27.0123C26.6381 27.4281 26.7373 27.8772 26.745 28.3327L27.9102 28.2235C28.5606 28.1629 29.3795 28.1296 30.3671 28.1235C30.9693 27.3958 31.5715 26.6348 32.1736 25.8405C32.8059 25.0583 33.3479 24.3852 33.8176 23.8577C34.7642 22.7477 35.8443 21.7608 37.0332 20.9198C37.785 20.3741 38.605 19.9307 39.472 19.6009C40.2278 19.3462 41.0005 19.1456 41.7844 19.0006C41.013 18.6488 40.2079 18.3776 39.3817 18.1911C38.0169 17.8854 36.6247 17.7208 35.2267 17.6999C32.0171 17.8212 29.7619 18.5428 28.4612 19.8647C27.1605 21.1866 26.5343 22.3629 26.5824 23.3938C26.5659 23.9575 26.7555 24.5078 27.1154 24.94C27.305 25.1444 27.5366 25.3047 27.7939 25.41C28.0513 25.5152 28.3283 25.5628 28.6057 25.5494C29.1484 25.528 29.6808 25.3932 30.169 25.1536C30.6573 24.9141 31.0908 24.575 31.442 24.1578C32.0765 23.5122 32.4745 22.6688 32.5711 21.7657C32.5711 21.3564 32.4266 21.1017 32.2278 21.0107C32.1458 20.9851 32.0714 20.9393 32.0114 20.8773C31.9515 20.8154 31.9079 20.7393 31.8846 20.656C31.8779 20.6402 31.8744 20.6232 31.8744 20.606C31.8744 20.5888 31.8779 20.5718 31.8846 20.556C31.9168 20.5449 31.9517 20.5449 31.984 20.556C32.1736 20.556 32.3453 20.7197 32.5169 21.0198C32.6891 21.3702 32.7758 21.7568 32.7698 22.1477C32.7365 23.1256 32.321 24.0508 31.6136 24.7217C30.9082 25.439 29.9596 25.8614 28.958 25.9042C28.5614 25.9058 28.1686 25.826 27.8036 25.6696C27.4387 25.5132 27.1092 25.2835 26.8354 24.9946C26.2183 24.3026 25.8942 23.3953 25.9321 22.466C25.9422 21.7684 26.1034 21.0814 26.4045 20.453C26.7056 19.8246 27.1394 19.2699 27.6754 18.8278C28.8677 17.6999 30.8007 17.1087 33.4834 17.0087C34.4935 17.0022 35.5024 17.0783 36.5003 17.2361C37.4216 17.3937 38.2646 17.5756 39.0294 17.7818L40.9895 18.3366C41.4179 18.4756 41.8601 18.5671 42.3083 18.6095C42.603 18.6024 42.8891 18.5075 43.1302 18.3366C43.2539 18.229 43.3904 18.1373 43.5367 18.0638C43.5758 18.0598 43.6153 18.0671 43.6504 18.0848C43.6856 18.1025 43.7151 18.1299 43.7354 18.1638C43.7786 18.2448 43.8004 18.3357 43.7986 18.4276C43.7843 18.5768 43.7509 18.7235 43.6993 18.8642C43.6617 18.9911 43.6038 19.1109 43.5277 19.2189C43.4668 19.2786 43.3866 19.3141 43.3018 19.319C43.0913 19.333 42.8801 19.333 42.6696 19.319C41.9442 19.2938 41.2249 19.46 40.583 19.801C39.7433 20.3447 39.0037 21.031 38.3971 21.8293C37.6954 22.6431 37.0525 23.5063 36.4732 24.4125C35.7429 25.5169 35.0968 26.6753 34.5402 27.8779C35.3988 27.9125 36.2533 27.7411 37.0332 27.3777C37.5842 27.0502 37.8642 26.6864 37.8642 26.3044C37.861 26.2366 37.8441 26.1702 37.8146 26.1092C37.7851 26.0483 37.7436 25.994 37.6926 25.9496C37.6418 25.9071 37.6004 25.8544 37.5709 25.7949C37.5413 25.7354 37.5243 25.6704 37.521 25.604C37.5245 25.5257 37.544 25.449 37.5782 25.3786C37.6124 25.3082 37.6605 25.2456 37.7197 25.1947C37.8258 25.0928 37.9623 25.0289 38.1081 25.0128C38.1786 25.0105 38.2485 25.0259 38.3116 25.0577C38.3747 25.0895 38.4289 25.1366 38.4694 25.1947C38.545 25.3173 38.5828 25.4598 38.5778 25.604C38.5344 26.2038 38.2586 26.7624 37.81 27.1594C37.2921 27.796 36.151 28.1417 34.3866 28.1963C33.993 29.1032 33.6522 30.0326 33.3659 30.9795C33.0452 31.9863 32.8658 33.0334 32.833 34.0902C32.8089 34.6407 32.9239 35.1884 33.1672 35.6819C34.0705 37.21 35.4254 35.0634 35.7325 34.1084C35.877 33.6536 36.0035 33.408 36.1119 33.3807C36.1496 33.366 36.1915 33.366 36.2293 33.3807C36.2452 33.3957 36.2575 33.4142 36.2653 33.4347C36.2731 33.4551 36.2763 33.4771 36.2745 33.499C36.1722 34.0289 35.9598 34.531 35.6512 34.9725C35.3978 35.3494 35.0939 35.6891 34.7479 35.9821C33.9079 36.6188 32.9414 36.3732 32.3272 34.9543C31.6941 33.3936 31.5987 31.6643 32.0562 30.0427C32.2212 29.4234 32.4264 28.8157 32.6704 28.2235L30.9633 28.269C30.4484 28.9876 29.9516 29.7152 29.4729 30.4338C28.9942 31.1523 28.5154 31.9345 28.0006 32.5894C27.4913 33.2472 26.9229 33.8561 26.3024 34.4085C25.6574 34.9813 24.937 35.4619 24.1617 35.8365C24.4891 36.1998 24.8852 36.4936 25.3269 36.7006C25.688 36.8634 26.0784 36.9501 26.474 36.9553C27.8922 36.8553 27.9735 36.3823 28.2173 35.9912C28.3077 35.8456 28.6419 35.5273 28.7954 35.6455C28.8142 35.6585 28.8291 35.6763 28.8387 35.6972C28.8482 35.718 28.852 35.741 28.8496 35.7638C28.8496 35.9457 28.6509 36.2186 28.2625 36.5824C27.7822 36.9832 27.1792 37.2049 26.5553 37.21C25.9537 37.2061 25.3641 37.0396 24.8482 36.7279C24.5177 36.5072 24.2145 36.2477 23.9449 35.9548L23.8907 35.9275Z" fill="#A6763C"/>
<path fill-rule="evenodd" clip-rule="evenodd" d="M27.704 5.07534V5.24815L27.6407 5.10263H27.704M27.704 4.64785V4.92071L27.5685 4.96619L27.4511 4.72971C27.5379 4.70329 27.6225 4.66983 27.704 4.62965V4.64785ZM27.704 4.14759V4.46593L27.6227 4.52051C27.4872 4.59327 27.3517 4.57508 27.3065 4.52051C27.2614 4.46593 27.3065 4.29312 27.4782 4.22035C27.5072 4.18929 27.5422 4.16442 27.581 4.14723C27.6198 4.13004 27.6616 4.12089 27.704 4.1203V4.14759ZM25.5723 1.27338L27.0988 4.1203L27.1891 4.27493C27.2769 4.1506 27.3995 4.05557 27.5414 4.00206C27.3681 3.69997 27.2719 3.35934 27.2614 3.01064C27.3969 2.30118 27.6498 3.34718 27.6678 3.53818V2.66501C27.4782 2.10108 26.9543 1.89188 26.8639 2.99245C26.5026 1.81912 26.2768 1.60082 25.5723 1.27338ZM27.704 4.43865C27.7423 4.41208 27.7716 4.37423 27.7878 4.33027C27.8039 4.2863 27.8062 4.23838 27.7943 4.19307C27.7861 4.17458 27.7736 4.15833 27.7579 4.14567C27.7422 4.13302 27.7237 4.12432 27.704 4.1203V4.43865ZM28.824 7.82221V8.62262H28.3182C28.3182 8.43161 28.3182 8.23151 28.3182 8.02231C28.4828 7.94581 28.6517 7.879 28.824 7.82221ZM28.824 6.23048C28.6326 6.29398 28.4456 6.36994 28.264 6.45787L28.1375 6.52154C28.2008 6.86717 28.255 7.28557 28.2821 7.72215C28.4588 7.64526 28.6398 7.57846 28.824 7.52205V7.27647C28.7391 7.26283 28.6619 7.21916 28.6061 7.15331C28.5503 7.08746 28.5197 7.00375 28.5197 6.91719C28.5197 6.83064 28.5503 6.74692 28.6061 6.68108C28.6619 6.61523 28.7391 6.57156 28.824 6.55792V6.23048ZM28.824 5.3664V5.93032C28.5982 6.00216 28.3778 6.09032 28.1646 6.1941H28.0833C28.0611 6.02003 28.0026 5.85266 27.9117 5.70293C28.208 5.57284 28.5128 5.46344 28.824 5.37549V5.3664ZM28.824 4.3386L28.6072 4.28402C28.4157 4.64877 28.0923 4.92552 27.704 5.05715V5.22996L27.8485 5.5665C28.1654 5.40398 28.4946 5.26711 28.833 5.1572L28.824 4.3386ZM28.824 3.90201V4.16578L28.553 4.09301C28.4743 4.27989 28.3571 4.44785 28.2092 4.58581C28.0613 4.72377 27.886 4.82861 27.6949 4.89343V4.62056C27.8537 4.56065 27.9967 4.46465 28.1126 4.34002C28.2285 4.21539 28.3144 4.06549 28.3633 3.90201V3.76557L28.4808 3.82015C28.5914 3.86334 28.7066 3.89386 28.824 3.9111V3.90201ZM28.824 1.90098V2.49219C28.3182 2.0556 28.7247 3.05612 28.824 3.22893C28.002 2.72868 28.0833 1.40982 28.824 1.91007V1.90098ZM27.704 3.51999C27.7936 3.24525 27.7936 2.94884 27.704 2.6741V3.51999ZM29.8989 7.57662V8.63171H28.824V7.82221C29.1745 7.709 29.5342 7.62682 29.8989 7.57662ZM29.8989 5.9849V6.24867C29.814 6.26231 29.7368 6.30598 29.681 6.37183C29.6252 6.43767 29.5945 6.52139 29.5945 6.60794C29.5945 6.6945 29.6252 6.77821 29.681 6.84406C29.7368 6.90991 29.814 6.95358 29.8989 6.96722V7.27647C29.5348 7.32554 29.1753 7.40464 28.824 7.51296V7.27647C28.9089 7.26283 28.9862 7.21916 29.0419 7.15331C29.0977 7.08746 29.1284 7.00375 29.1284 6.91719C29.1284 6.83064 29.0977 6.74692 29.0419 6.68108C28.9862 6.61523 28.9089 6.57156 28.824 6.55792V6.23957C29.1742 6.12328 29.5339 6.03806 29.8989 5.9849ZM29.8989 5.07534C29.5343 5.13472 29.1749 5.22291 28.824 5.33911V5.90304C29.1753 5.79472 29.5348 5.71562 29.8989 5.66655V5.07534ZM29.8989 4.27493V4.88433C29.5346 4.94092 29.1752 5.02607 28.824 5.13901V4.35679C29.1815 4.41721 29.5477 4.40172 29.8989 4.31131V4.27493ZM29.8989 3.82924V4.09301C29.5456 4.17803 29.1773 4.17803 28.824 4.09301V3.9111C29.1801 3.99039 29.5506 3.97472 29.8989 3.86563V3.82924ZM29.8989 3.31079C29.8022 3.27821 29.6975 3.27821 29.6008 3.31079C29.4111 3.31079 29.2666 3.47451 29.2847 3.58366C29.3027 3.69281 29.4744 3.74738 29.664 3.7019C29.7461 3.69856 29.8263 3.67681 29.8989 3.63824V3.31079ZM29.8989 1.68268V3.21984C29.7945 3.19901 29.6871 3.19901 29.5828 3.21984C29.4366 3.24681 29.3016 3.31639 29.1944 3.41994C29.1614 3.0901 29.0396 2.77558 28.8421 2.51038V1.91007C28.9586 1.99412 29.0647 2.09183 29.1582 2.20113C28.995 1.85943 28.9042 1.48722 28.8918 1.10823C28.8793 0.729248 28.9455 0.351811 29.086 0C29.5557 0.518449 29.6821 0.909559 29.7182 2.08289C29.767 1.9562 29.8275 1.83439 29.8989 1.71907V1.68268ZM29.8989 3.18346H30.0254C29.9536 2.84864 29.9691 2.50081 30.0705 2.17385C30.4228 1.52806 30.3415 2.66501 30.3054 2.85601C30.9015 2.08289 30.4228 0.791316 29.8718 1.63721L29.8989 3.18346ZM29.8989 3.57457C29.9256 3.55695 29.9472 3.53251 29.9615 3.50375C29.9758 3.47499 29.9822 3.44293 29.9802 3.41085C29.9752 3.38899 29.9653 3.36859 29.9512 3.35123C29.9371 3.33388 29.9192 3.32004 29.8989 3.31079V3.57457ZM31.0551 7.45838V8.63171H29.8989V7.57662C30.2698 7.52245 30.6441 7.49509 31.0189 7.49476L31.0551 7.45838ZM31.0551 5.86665V6.11224C30.9702 6.12588 30.8929 6.16954 30.8371 6.23539C30.7814 6.30124 30.7507 6.38496 30.7507 6.47151C30.7507 6.55806 30.7814 6.64178 30.8371 6.70763C30.8929 6.77348 30.9702 6.81714 31.0551 6.83079V7.15823C30.6674 7.16982 30.281 7.20933 29.8989 7.27647V6.97632C29.9838 6.96267 30.061 6.91901 30.1168 6.85316C30.1726 6.78731 30.2033 6.70359 30.2033 6.61704C30.2033 6.53049 30.1726 6.44677 30.1168 6.38092C30.061 6.31507 29.9838 6.27141 29.8989 6.25776V5.9849C30.2698 5.93072 30.6441 5.90336 31.0189 5.90304L31.0551 5.86665ZM31.0551 4.9571V5.5574C30.6805 5.55547 30.3062 5.57979 29.935 5.63017V5.11172C30.2994 5.05242 30.6679 5.02201 31.037 5.02076L31.0551 4.9571ZM31.0551 3.7201H31.0009C30.6816 3.99296 30.3047 4.18893 29.8989 4.29312V4.90252C30.2636 4.84695 30.632 4.81959 31.0009 4.82066H31.0551V3.7201ZM31.0551 3.1016V3.44723L31.0009 3.40175C30.6956 3.7139 30.3163 3.94243 29.8989 4.06573V3.86563C30.3031 3.72881 30.6645 3.48727 30.9467 3.16526L31.0009 3.11069L31.0551 3.1016ZM32.1571 7.57662V8.63171H31.0551V7.49476C31.4239 7.49598 31.7921 7.52333 32.1571 7.57662ZM32.1571 5.9849V6.28505C32.0722 6.29869 31.9949 6.34236 31.9391 6.40821C31.8833 6.47406 31.8527 6.55777 31.8527 6.64433C31.8527 6.73088 31.8833 6.8146 31.9391 6.88045C31.9949 6.94629 32.0722 6.98996 32.1571 7.0036V7.27647C31.792 7.22405 31.4238 7.1967 31.0551 7.19461V6.88536C31.14 6.87172 31.2172 6.82805 31.273 6.7622C31.3288 6.69635 31.3594 6.61264 31.3594 6.52608C31.3594 6.43953 31.3288 6.35581 31.273 6.28997C31.2172 6.22412 31.14 6.18045 31.0551 6.16681V5.91213C31.4239 5.9132 31.7921 5.94055 32.1571 5.99399V5.9849ZM32.1571 5.07534V5.65746C31.792 5.60503 31.4238 5.57768 31.0551 5.5756V5.02986C31.4242 5.03099 31.7927 5.0614 32.1571 5.12082V5.07534ZM32.1571 4.27493V4.88433C31.7926 4.82572 31.4242 4.79531 31.0551 4.79338V3.78376C31.3761 4.0482 31.7531 4.2349 32.1571 4.3295V4.27493ZM32.1571 3.82924C31.7318 3.69949 31.3505 3.45397 31.0551 3.11979V3.46542C31.3624 3.76893 31.7418 3.98813 32.1571 4.10211V3.82924ZM32.1571 3.27441V3.63824C32.0667 3.58366 32.0125 3.5109 32.0216 3.43813C32.0316 3.40891 32.0497 3.38315 32.0736 3.36384C32.0976 3.34452 32.1265 3.33244 32.1571 3.32899V3.27441ZM32.1571 1.81912V3.21984C32.094 3.22667 32.0328 3.24517 31.9764 3.27441C32.0478 2.93956 32.0322 2.59183 31.9312 2.2648C31.579 1.61901 31.6603 2.75596 31.6964 2.94697C31.0551 2.13746 31.6151 0.800412 32.1571 1.81912ZM32.1571 3.63824C32.2129 3.67229 32.2739 3.69687 32.3377 3.711C32.5274 3.711 32.699 3.711 32.7171 3.59276C32.7351 3.47451 32.5906 3.36537 32.4009 3.31989C32.3179 3.29909 32.2311 3.29909 32.148 3.31989L32.1571 3.63824ZM33.2048 7.82221V8.63171H32.1571V7.57662C32.5126 7.62836 32.8631 7.71052 33.2048 7.82221ZM33.2048 6.23048V6.50335C33.12 6.51699 33.0427 6.56065 32.9869 6.6265C32.9311 6.69235 32.9005 6.77607 32.9005 6.86262C32.9005 6.94917 32.9311 7.03289 32.9869 7.09874C33.0427 7.16459 33.12 7.20825 33.2048 7.2219V7.51296C32.8625 7.40592 32.5121 7.32684 32.1571 7.27647V7.0036C32.2419 6.98996 32.3192 6.94629 32.375 6.88045C32.4308 6.8146 32.4614 6.73088 32.4614 6.64433C32.4614 6.55777 32.4308 6.47406 32.375 6.40821C32.3192 6.34236 32.2419 6.29869 32.1571 6.28505V5.99399C32.5126 6.04595 32.8631 6.1281 33.2048 6.23957V6.23048ZM33.2048 5.38459C32.8628 5.2698 32.5125 5.18161 32.1571 5.12082V5.70293C32.512 5.75346 32.8624 5.83254 33.2048 5.93942V5.38459ZM33.2048 4.34769V5.18448C32.8626 5.07274 32.5123 4.9876 32.1571 4.92981V4.3295C32.5014 4.40758 32.858 4.41377 33.2048 4.34769ZM33.2048 3.9111V4.17488C32.8602 4.25561 32.5017 4.25561 32.1571 4.17488V3.88382C32.4984 3.98214 32.8589 3.99153 33.2048 3.9111ZM33.2048 1.90098V2.49219C33.0073 2.75739 32.8855 3.07191 32.8526 3.40175C32.7453 3.2982 32.6103 3.22862 32.4642 3.20165C32.3744 3.18688 32.2829 3.18688 32.1932 3.20165V1.81912C32.2439 1.90718 32.2891 1.99831 32.3287 2.09199C32.3287 0.909559 32.4822 0.527544 32.961 0.00909559C33.1043 0.359652 33.1735 0.736431 33.1641 1.11541C33.1548 1.49439 33.0671 1.86725 32.9068 2.21023C32.993 2.09509 33.0931 1.9912 33.2048 1.90098ZM33.2048 3.23803C33.3313 2.98335 33.6384 2.17385 33.2048 2.52857V1.90098C33.9184 1.4462 33.9545 2.72868 33.2048 3.22893V3.23803ZM33.2048 5.96671V5.38459C33.5139 5.48462 33.8158 5.60619 34.1081 5.74841C34.0215 5.89282 33.9661 6.05398 33.9455 6.22138H33.9004C33.676 6.10963 33.4435 6.01537 33.2048 5.93942V5.96671ZM33.2048 7.55843V7.27647C33.2897 7.26283 33.367 7.21916 33.4228 7.15331C33.4786 7.08746 33.5092 7.00375 33.5092 6.91719C33.5092 6.83064 33.4786 6.74692 33.4228 6.68108C33.367 6.61523 33.2897 6.57156 33.2048 6.55792V6.28505C33.3993 6.34808 33.5894 6.42405 33.7739 6.51244L33.8642 6.55792C33.801 6.90355 33.7468 7.32195 33.7197 7.75854C33.5526 7.67001 33.3807 7.59106 33.2048 7.52205V7.55843ZM33.2048 8.6681V7.82221C33.3739 7.8764 33.5397 7.94017 33.7016 8.01321C33.7016 8.22241 33.7016 8.43161 33.7016 8.62262L33.2048 8.6681ZM34.3249 5.07534C33.9365 4.94371 33.6132 4.66696 33.4216 4.30221L33.2319 4.34769V5.18448C33.5609 5.29283 33.881 5.42663 34.1894 5.58469L34.3249 5.24815V5.07534ZM34.3249 4.62056C34.1661 4.56065 34.0231 4.46465 33.9072 4.34002C33.7913 4.21539 33.7055 4.06549 33.6565 3.90201V3.76557L33.539 3.82015C33.4517 3.85883 33.361 3.88928 33.2681 3.9111V4.17488L33.4216 4.10211C33.5004 4.28899 33.6176 4.45694 33.7655 4.59491C33.9134 4.73287 34.0887 4.83771 34.2797 4.90252L34.3249 4.62056ZM34.3249 4.1203V4.43865C34.2865 4.41208 34.2573 4.37423 34.2411 4.33027C34.2249 4.2863 34.2226 4.23838 34.2346 4.19307C34.2428 4.17458 34.2553 4.15833 34.271 4.14567C34.2867 4.13302 34.3052 4.12432 34.3249 4.1203ZM34.3249 2.66501V3.5109C34.2353 3.23616 34.2353 2.93975 34.3249 2.66501ZM34.3249 3.5109C34.3249 3.32899 34.5959 2.2739 34.7314 2.98335C34.7181 3.33284 34.6188 3.67353 34.4423 3.97477C34.5842 4.02828 34.7068 4.12332 34.7946 4.24764L34.8849 4.09301L36.4295 1.27338C35.7249 1.60082 35.5262 1.8464 35.1017 2.99245C35.0114 1.90098 34.4875 2.08289 34.2978 2.66501L34.3249 3.5109ZM34.3249 4.42046V4.1203C34.3949 4.09457 34.4717 4.09457 34.5417 4.1203C34.6772 4.19307 34.7494 4.3295 34.7133 4.42046C34.6772 4.51141 34.5326 4.5296 34.3972 4.42046H34.3249ZM34.3249 4.88433V4.61146C34.4066 4.6486 34.4912 4.67902 34.5778 4.70242L34.4604 4.9389L34.3249 4.88433ZM34.3249 5.23906V5.07534H34.3881L34.3249 5.23906Z" fill="#A6763C"/>
<path fill-rule="evenodd" clip-rule="evenodd" d="M16.3763 11.5332C15.2096 12.4696 14.1384 13.5208 13.1787 14.6712C13.6643 13.8793 13.9517 12.9806 14.0163 12.0521C14.0808 11.1237 13.9204 10.1934 13.5491 9.34118C13.5491 9.34118 10.7851 11.6878 12.1581 16.0628L12.0948 16.1538C11.3551 17.2267 10.7256 18.3726 10.216 19.5737C10.3789 18.7124 10.3361 17.8245 10.0911 16.9831C9.84608 16.1418 9.40593 15.3712 8.80695 14.7349C8.29519 15.8143 8.09255 17.016 8.2218 18.205C8.35105 19.3941 8.80706 20.5232 9.53859 21.4656C9.13682 22.8128 8.88537 24.2008 8.78888 25.6041C8.65295 24.8147 8.32764 24.0706 7.84123 23.4366C7.35482 22.8025 6.72201 22.2977 5.9978 21.9659C5.85278 23.1168 6.03459 24.2856 6.52218 25.3368C7.00976 26.388 7.78315 27.2785 8.75275 27.9053C8.80239 29.0289 8.93219 30.1475 9.14115 31.2525C8.80672 30.6628 8.33868 30.161 7.77518 29.788C7.21167 29.415 6.56863 29.1813 5.89844 29.1059C5.9989 30.2481 6.43738 31.3338 7.15719 32.2224C7.87699 33.111 8.845 33.7617 9.93602 34.0903C10.6895 35.9921 11.6498 37.8041 12.7994 39.4931C12.411 38.9564 10.0896 35.9913 7.01848 37.4465C7.59862 38.4195 8.49273 39.1626 9.55145 39.5516C10.6102 39.9406 11.7694 39.9521 12.8355 39.584L12.8807 39.7023V39.6568C13.2239 40.1479 13.6033 40.6209 14.0007 41.0757C14.57 41.7124 15.2164 42.2746 15.9247 42.7493C15.1028 42.3147 14.1634 42.1595 13.2468 42.3071C12.3302 42.4546 11.4856 42.8969 10.8393 43.5679C11.7083 44.2696 12.7968 44.6375 13.9103 44.6059C15.0238 44.5742 16.0899 44.1451 16.9182 43.3951L17.0266 43.4496C18.4834 44.21 19.9928 44.8635 21.543 45.4052C20.5982 45.3159 19.6492 45.5244 18.8272 46.0018C18.0052 46.4793 17.3508 47.202 16.9544 48.0702C16.9544 48.0702 20.1158 49.3163 22.5365 45.7872L23.0514 45.9873L23.8553 46.2693C23.7091 46.4377 23.5846 46.6241 23.485 46.8241C23.3255 47.1398 23.2013 47.4723 23.1146 47.8155C23.0344 47.838 22.964 47.887 22.9149 47.9546C22.8657 48.0223 22.8406 48.1047 22.8437 48.1884C22.8355 48.2392 22.8384 48.291 22.8521 48.3405C22.8659 48.39 22.8901 48.4359 22.9232 48.475C22.9562 48.5141 22.9974 48.5455 23.0437 48.5671C23.09 48.5886 23.1404 48.5998 23.1914 48.5998C23.2424 48.5998 23.2928 48.5886 23.3392 48.5671C23.3855 48.5455 23.4266 48.5141 23.4597 48.475C23.4927 48.4359 23.517 48.39 23.5307 48.3405C23.5444 48.291 23.5473 48.2392 23.5392 48.1884C23.5402 48.127 23.5269 48.0661 23.5002 48.0108C23.4735 47.9555 23.4343 47.9073 23.3856 47.8701V47.77C23.4629 47.4971 23.5657 47.2321 23.6927 46.9787C23.7983 46.7578 23.942 46.5576 24.1173 46.3875L24.596 46.5512C24.4653 46.6841 24.3529 46.834 24.2618 46.9969C24.1068 47.2787 24.0057 47.5872 23.9637 47.9065C23.9551 48.0215 23.9551 48.1371 23.9637 48.2521V48.3067C23.9069 48.3418 23.8602 48.3915 23.8285 48.4505C23.7968 48.5096 23.7811 48.5761 23.7831 48.6432C23.7749 48.6939 23.7778 48.7458 23.7915 48.7953C23.8053 48.8448 23.8295 48.8907 23.8626 48.9298C23.8956 48.9689 23.9368 49.0003 23.9831 49.0219C24.0294 49.0434 24.0798 49.0546 24.1308 49.0546C24.1818 49.0546 24.2322 49.0434 24.2785 49.0219C24.3249 49.0003 24.366 48.9689 24.399 48.9298C24.4321 48.8907 24.4564 48.8448 24.4701 48.7953C24.4838 48.7458 24.4867 48.6939 24.4786 48.6432C24.4801 48.567 24.4584 48.4921 24.4164 48.4287C24.3745 48.3653 24.3142 48.3164 24.2437 48.2885C24.2369 48.1916 24.2369 48.0943 24.2437 47.9974C24.2816 47.7295 24.3673 47.4707 24.4966 47.2334C24.5889 47.0663 24.7079 46.9157 24.8489 46.7877L24.9212 46.7331L27.1884 47.5154L27.369 47.2061L25.5264 46.3875C25.5173 46.0957 25.5859 45.8068 25.7251 45.5507C25.8485 45.3598 26.0119 45.1984 26.2038 45.0777C26.2626 45.1256 26.336 45.1513 26.4115 45.1505C26.4877 45.1578 26.5643 45.1418 26.6312 45.1046C26.6982 45.0673 26.7524 45.0105 26.7867 44.9417C26.821 44.8728 26.8339 44.7951 26.8236 44.7188C26.8133 44.6425 26.7803 44.5711 26.729 44.5139C26.6777 44.4568 26.6104 44.4166 26.536 44.3987C26.4616 44.3808 26.3835 44.3859 26.3121 44.4134C26.2407 44.441 26.1791 44.4896 26.1356 44.553C26.0921 44.6163 26.0687 44.6915 26.0683 44.7685C25.8392 44.9114 25.6448 45.1041 25.4993 45.3324C25.3407 45.6095 25.2537 45.9223 25.2463 46.242L24.7586 46.0601C24.6729 45.7106 24.6729 45.3454 24.7586 44.9959C24.8219 44.7131 24.9592 44.4525 25.156 44.241H25.2915C25.3677 44.2483 25.4442 44.2323 25.5112 44.195C25.5781 44.1577 25.6323 44.1009 25.6667 44.0321C25.701 43.9633 25.7138 43.8856 25.7035 43.8092C25.6932 43.7329 25.6603 43.6615 25.6089 43.6044C25.5576 43.5473 25.4903 43.5071 25.4159 43.4892C25.3415 43.4712 25.2635 43.4764 25.1921 43.5039C25.1206 43.5314 25.0591 43.5801 25.0156 43.6434C24.9721 43.7068 24.9486 43.7819 24.9483 43.8589C24.9347 43.9188 24.9347 43.981 24.9483 44.0408C24.7376 44.2866 24.5889 44.5799 24.5147 44.8958C24.4237 45.2365 24.3991 45.5917 24.4424 45.9418L24.0089 45.7872C23.9798 45.7256 23.9556 45.6617 23.9366 45.5962C23.8796 45.397 23.8403 45.193 23.8192 44.9868C23.8192 44.7958 23.8192 44.6048 23.8192 44.4411C23.8192 44.2773 23.8192 44.1591 23.8192 44.0499C23.8945 44.0246 23.9597 43.9756 24.0053 43.9101C24.0508 43.8446 24.0742 43.7661 24.0721 43.6861C24.0802 43.6354 24.0773 43.5835 24.0636 43.534C24.0499 43.4846 24.0256 43.4387 23.9926 43.3996C23.9595 43.3604 23.9184 43.329 23.8721 43.3075C23.8258 43.2859 23.7754 43.2748 23.7243 43.2748C23.6733 43.2748 23.6229 43.2859 23.5766 43.3075C23.5303 43.329 23.4892 43.3604 23.4561 43.3996C23.423 43.4387 23.3988 43.4846 23.3851 43.534C23.3713 43.5835 23.3684 43.6354 23.3766 43.6861C23.3753 43.7509 23.3903 43.8149 23.4204 43.8722C23.4504 43.9295 23.4944 43.9781 23.5482 44.0136C23.5173 44.3555 23.5173 44.6995 23.5482 45.0414C23.5734 45.2537 23.6157 45.4636 23.6747 45.669L23.4308 45.578L23.205 45.487L22.7985 45.3324C22.7985 44.3592 22.5998 40.7846 19.6009 39.6295C19.5077 40.6436 19.668 41.665 20.0672 42.6007C20.4663 43.5364 21.0916 44.3567 21.8862 44.9868L21.6784 44.9959C20.1276 44.456 18.6181 43.8024 17.1621 43.0403C17.4783 41.8943 18.0654 38.7017 15.753 36.6734C15.3715 37.6231 15.2232 38.6515 15.3207 39.6713C15.4182 40.691 15.7586 41.672 16.3131 42.531C15.5777 42.046 14.9094 41.4649 14.3259 40.8028C13.9189 40.3348 13.536 39.846 13.1787 39.3384C13.8381 38.3379 15.2743 35.6092 13.6936 32.8442C13.0846 33.5702 12.651 34.4286 12.4268 35.3518C12.2027 36.275 12.1942 37.238 12.4019 38.1651C11.6272 36.8927 10.9537 35.5606 10.3877 34.1812C11.4284 33.7072 12.3023 32.9268 12.894 31.9429C13.4857 30.959 13.7677 29.8177 13.7026 28.6693C13.7026 28.6693 10.6586 29.5243 10.1709 33.6173C9.85473 32.7896 9.69214 32.2621 9.68311 32.2439C9.37646 30.914 9.18604 29.5597 9.11405 28.1963C10.2366 28.0523 11.2828 27.5467 12.0967 26.755C12.9106 25.9633 13.4486 24.9279 13.6304 23.8032C13.6304 23.8032 10.496 23.7577 9.11405 27.5778C9.0466 25.6375 9.27818 23.6983 9.80054 21.8294C10.8449 22.1528 11.9681 22.1032 12.9803 21.6889C13.9925 21.2745 14.8315 20.521 15.3556 19.5555C14.4244 19.2054 13.4062 19.1648 12.4504 19.4398C11.4946 19.7148 10.6514 20.2909 10.0444 21.0836C10.6022 19.4279 11.3899 17.8601 12.3839 16.4266C13.2871 17.0724 15.8434 18.5368 18.1738 16.4903C17.4872 15.8329 16.6177 15.4022 15.6815 15.2559C14.7452 15.1096 13.787 15.2547 12.9349 15.6717C13.9903 14.3015 15.2031 13.062 16.5479 11.9789C17.2344 12.5701 19.881 14.5802 22.4733 12.561C21.8335 11.8643 21 11.378 20.0816 11.1654C19.1631 10.9529 18.2024 11.024 17.3247 11.3695C18.0789 10.8003 18.8728 10.2866 19.7003 9.83234C21.0823 9.89601 25.1199 9.76867 25.716 6.1941C25.716 6.1941 21.8139 4.82977 19.3932 9.4958C18.6714 9.90184 17.9746 10.3514 17.3067 10.8419C17.9416 10.0443 18.3589 9.09366 18.5173 8.08393C18.6757 7.0742 18.5697 6.04033 18.2099 5.08444C18.2099 5.08444 15.3556 7.20371 16.3763 11.5332Z" fill="#A6763C"/>
<path fill-rule="evenodd" clip-rule="evenodd" d="M45.6238 11.5332C46.7905 12.4697 47.8616 13.5209 48.8214 14.6712C48.3415 13.8763 48.0605 12.976 48.0022 12.0476C47.944 11.1193 48.1104 10.1905 48.4872 9.34118C48.4872 9.34118 51.2511 11.6878 49.8782 16.0628L49.9414 16.1538C50.6812 17.2266 51.3107 18.3725 51.8202 19.5737C51.6573 18.7124 51.7002 17.8245 51.9452 16.9831C52.1902 16.1418 52.6303 15.3712 53.2293 14.7349C53.741 15.8143 53.9437 17.016 53.8144 18.205C53.6852 19.3941 53.2292 20.5232 52.4976 21.4656C52.9162 22.8169 53.1828 24.2111 53.2925 25.6223C53.4285 24.8329 53.7538 24.0888 54.2402 23.4548C54.7266 22.8207 55.3594 22.3158 56.0836 21.984C56.2268 23.1401 56.0403 24.3132 55.5461 25.3665C55.0519 26.4199 54.2703 27.3098 53.2925 27.9326C53.2428 29.0562 53.113 30.1748 52.9041 31.2797C53.231 30.6907 53.6906 30.1871 54.2459 29.8096C54.8013 29.432 55.4369 29.191 56.1017 29.1059C55.9971 30.246 55.5557 31.3285 54.8344 32.2137C54.1132 33.0989 53.1451 33.7462 52.055 34.0721C51.3013 35.9738 50.341 37.7857 49.1917 39.4749C49.5801 38.9382 51.9015 35.9731 54.9726 37.4284C54.3925 38.4013 53.4983 39.1444 52.4396 39.5334C51.3809 39.9224 50.2217 39.9339 49.1556 39.5658L49.1104 39.6841V39.6386C48.7672 40.1297 48.3878 40.6027 47.9904 41.0575C47.4223 41.7007 46.7758 42.2691 46.0664 42.7493C46.8863 42.3157 47.8233 42.1603 48.7379 42.3062C49.6526 42.452 50.496 42.8913 51.1428 43.5588C50.2737 44.2605 49.1853 44.6284 48.0717 44.5968C46.9582 44.5651 45.8921 44.136 45.0638 43.386L44.9554 43.4405C43.4986 44.2009 41.9893 44.8544 40.4391 45.3961C41.3839 45.3068 42.3328 45.5153 43.1548 45.9928C43.9769 46.4702 44.6313 47.1929 45.0277 48.0611C45.0277 48.0611 41.8662 49.3072 39.4455 45.7781L38.9306 45.9782L38.1177 46.2602C38.264 46.4286 38.3885 46.615 38.488 46.815C38.643 47.1402 38.7612 47.4819 38.8403 47.8337C38.9205 47.8561 38.9909 47.9051 39.0401 47.9728C39.0892 48.0405 39.1143 48.1228 39.1113 48.2066C39.1194 48.2573 39.1165 48.3092 39.1028 48.3587C39.0891 48.4082 39.0648 48.4541 39.0318 48.4932C38.9987 48.5323 38.9576 48.5637 38.9113 48.5853C38.865 48.6068 38.8145 48.618 38.7635 48.618C38.7125 48.618 38.6621 48.6068 38.6158 48.5853C38.5695 48.5637 38.5284 48.5323 38.4953 48.4932C38.4622 48.4541 38.438 48.4082 38.4243 48.3587C38.4105 48.3092 38.4076 48.2573 38.4158 48.2066C38.4147 48.1451 38.4281 48.0843 38.4547 48.029C38.4814 47.9737 38.5207 47.9255 38.5693 47.8883V47.7882C38.4922 47.5152 38.3894 47.2502 38.2622 46.9969C38.1567 46.776 38.0129 46.5758 37.8377 46.4057L37.359 46.5694C37.4895 46.7024 37.6019 46.8523 37.6932 47.0151C37.848 47.2969 37.9491 47.6054 37.9912 47.9247C37.979 48.0197 37.9609 48.1139 37.937 48.2066V48.2612C37.9939 48.2964 38.0405 48.346 38.0722 48.4051C38.1039 48.4641 38.1196 48.5306 38.1177 48.5977C38.1258 48.6485 38.1229 48.7003 38.1092 48.7498C38.0955 48.7993 38.0712 48.8452 38.0382 48.8843C38.0051 48.9234 37.964 48.9548 37.9177 48.9764C37.8714 48.9979 37.821 49.0091 37.7699 49.0091C37.7189 49.0091 37.6685 48.9979 37.6222 48.9764C37.5759 48.9548 37.5348 48.9234 37.5017 48.8843C37.4686 48.8452 37.4444 48.7993 37.4307 48.7498C37.4169 48.7003 37.414 48.6485 37.4222 48.5977C37.4219 48.5218 37.4441 48.4475 37.4859 48.3843C37.5277 48.3211 37.5873 48.2719 37.657 48.243C37.6638 48.1461 37.6638 48.0489 37.657 47.952C37.6191 47.684 37.5334 47.4252 37.4041 47.1879C37.3118 47.0209 37.1928 46.8703 37.0518 46.7422L37.0338 46.6604L34.7666 47.4426L34.5859 47.1333L36.4738 46.3875C36.4828 46.0957 36.4142 45.8068 36.275 45.5507C36.1516 45.3598 35.9882 45.1984 35.7963 45.0777C35.7376 45.1256 35.6641 45.1513 35.5886 45.1505C35.5124 45.1578 35.4358 45.1418 35.3689 45.1046C35.3019 45.0673 35.2477 45.0105 35.2134 44.9417C35.1791 44.8728 35.1662 44.7951 35.1765 44.7188C35.1868 44.6425 35.2198 44.5711 35.2711 44.5139C35.3224 44.4568 35.3897 44.4166 35.4641 44.3987C35.5385 44.3808 35.6166 44.3859 35.688 44.4134C35.7595 44.441 35.821 44.4896 35.8645 44.553C35.908 44.6163 35.9315 44.6915 35.9318 44.7685C36.1609 44.9114 36.3553 45.1041 36.5009 45.3324C36.6594 45.6095 36.7464 45.9223 36.7538 46.242L37.2415 46.0601C37.3272 45.7106 37.3272 45.3454 37.2415 44.9959C37.1782 44.7131 37.041 44.4525 36.8441 44.2409H36.7628C36.6866 44.2483 36.6101 44.2323 36.5431 44.195C36.4762 44.1577 36.422 44.1009 36.3876 44.0321C36.3533 43.9633 36.3405 43.8856 36.3508 43.8092C36.3611 43.7329 36.394 43.6615 36.4454 43.6044C36.4967 43.5472 36.564 43.5071 36.6384 43.4892C36.7128 43.4712 36.7908 43.4764 36.8622 43.5039C36.9337 43.5314 36.9952 43.5801 37.0387 43.6434C37.0822 43.7068 37.1057 43.7819 37.106 43.8589C37.1199 43.9188 37.1199 43.981 37.106 44.0408C37.3167 44.2866 37.4654 44.5799 37.5396 44.8958C37.6306 45.2365 37.6552 45.5917 37.6119 45.9418L38.0454 45.7872C38.0747 45.7256 38.0989 45.6618 38.1177 45.5962C38.1746 45.3969 38.2139 45.193 38.2351 44.9868C38.2351 44.7958 38.2351 44.6048 38.2351 44.4411C38.2351 44.2773 38.2351 44.1591 38.2351 44.0499C38.1598 44.0246 38.0946 43.9756 38.049 43.9101C38.0035 43.8446 37.9801 43.7661 37.9822 43.6861C37.9741 43.6354 37.977 43.5835 37.9907 43.534C38.0044 43.4846 38.0287 43.4387 38.0617 43.3996C38.0948 43.3604 38.1359 43.329 38.1822 43.3075C38.2285 43.2859 38.2789 43.2748 38.33 43.2748C38.381 43.2748 38.4314 43.2859 38.4777 43.3075C38.524 43.329 38.5651 43.3604 38.5982 43.3996C38.6313 43.4387 38.6555 43.4846 38.6692 43.534C38.683 43.5835 38.6859 43.6354 38.6777 43.6861C38.679 43.7509 38.664 43.8149 38.6339 43.8722C38.6039 43.9295 38.5599 43.9781 38.5061 44.0136C38.537 44.3555 38.537 44.6995 38.5061 45.0414C38.481 45.2537 38.4387 45.4636 38.3796 45.669L38.6235 45.578L38.8493 45.487L39.2558 45.3324C39.2558 44.3592 39.4545 40.7846 42.4534 39.6295C42.5466 40.6436 42.3863 41.665 41.9871 42.6007C41.588 43.5364 40.9627 44.3567 40.1681 44.9868L40.3668 44.914C41.9177 44.3742 43.4272 43.7206 44.8831 42.9585C44.567 41.8124 43.9799 38.6199 46.2922 36.5916C46.6738 37.5413 46.8221 38.5696 46.7246 39.5894C46.6271 40.6091 46.2867 41.5902 45.7322 42.4491C46.4676 41.9641 47.1358 41.383 47.7194 40.721C48.0941 40.2685 48.4467 39.798 48.7762 39.3111C48.1168 38.3106 46.6806 35.582 48.2613 32.8169C48.8704 33.5429 49.304 34.4013 49.5281 35.3245C49.7522 36.2477 49.7607 37.2107 49.553 38.1378C50.3278 36.8654 51.0013 35.5333 51.5673 34.1539C50.5265 33.6799 49.6527 32.8995 49.061 31.9156C48.4692 30.9317 48.1873 29.7904 48.2523 28.642C48.2523 28.642 51.2963 29.497 51.7841 33.59C52.1092 32.7623 52.2628 32.2348 52.2718 32.2166C52.5951 30.8972 52.8036 29.5521 52.8951 28.1963C51.7725 28.0523 50.7263 27.5467 49.9124 26.755C49.0985 25.9633 48.5606 24.9279 48.3788 23.8032C48.3788 23.8032 51.5221 23.7577 52.8951 27.5778C52.9597 25.637 52.7251 23.6978 52.1996 21.8294C51.1587 22.1489 50.0403 22.0982 49.0322 21.6859C48.024 21.2735 47.1873 20.5245 46.6626 19.5646C47.5938 19.2145 48.612 19.1739 49.5678 19.4489C50.5236 19.7239 51.3668 20.3 51.9738 21.0927C51.4308 19.4364 50.6584 17.8655 49.6795 16.4266C48.7762 17.0724 46.22 18.5368 43.8895 16.4903C44.5761 15.8329 45.4456 15.4022 46.3819 15.2559C47.3181 15.1096 48.2764 15.2547 49.1285 15.6717C48.073 14.3016 46.8602 13.062 45.5154 11.9789C44.8289 12.5701 42.1824 14.5802 39.59 12.561C40.2298 11.8643 41.0633 11.378 41.9818 11.1654C42.9002 10.9529 43.8609 11.024 44.7386 11.3695C43.9845 10.8002 43.1906 10.2865 42.363 9.83234C40.981 9.89601 36.9435 9.76867 36.3473 6.1941C36.3473 6.1941 40.2494 4.82977 42.6701 9.4958C43.3889 9.90208 44.0826 10.3516 44.7477 10.8419C44.1135 10.0439 43.6968 9.09327 43.5384 8.08372C43.38 7.07417 43.4855 6.04048 43.8444 5.08444C43.8444 5.08444 46.6355 7.20371 45.6238 11.5332Z" fill="#A6763C"/>
<path fill-rule="evenodd" clip-rule="evenodd" d="M32.0929 49.0343C32.409 49.2799 32.1471 50.2077 31.7496 50.3987L31.8851 50.4532C32.1765 50.6045 32.4977 50.6883 32.8254 50.6987C33.153 50.7091 33.4789 50.6458 33.7791 50.5134C34.0794 50.3809 34.3466 50.1827 34.5611 49.9331C34.7757 49.6836 34.9323 49.3889 35.0194 49.0707C34.5497 48.5614 32.5716 46.2784 32.8426 43.5315H31.2528V47.4426C31.4275 47.3998 31.6098 47.3997 31.7846 47.4422C31.9594 47.4847 32.1215 47.5686 32.2576 47.6869C32.3937 47.8052 32.4997 47.9546 32.5669 48.1225C32.6341 48.2904 32.6605 48.4721 32.6439 48.6523C32.6439 48.6978 31.8671 47.4608 31.2528 48.7524V49.1162C31.3546 48.9969 31.496 48.919 31.6507 48.8973C31.8053 48.8755 31.9626 48.9113 32.0929 48.9979M31.2528 53.5457H34.2065C33.3574 53.191 31.4967 52.718 31.2528 51.0536V50.9353C31.6993 51.2154 32.207 51.3813 32.7317 51.4184C33.2564 51.4556 33.7821 51.363 34.2631 51.1486C34.7441 50.9343 35.1658 50.6047 35.4912 50.1886C35.8167 49.7725 36.0362 49.2825 36.1305 48.7615C33.7368 46.5785 32.7161 44.5957 33.8904 42.1763C33.9717 42.0125 34.0801 42.4855 34.3601 42.6674C34.6401 42.8493 35.173 42.7584 35.2091 42.058C35.2724 40.7392 33.8362 40.6118 33.249 42.0125C33.1145 42.332 33.0117 42.6641 32.9419 43.004H31.2528V42.149C31.3006 42.1579 31.3496 42.1579 31.3974 42.149C31.5308 42.1351 31.6536 42.0694 31.7396 41.9658C31.8257 41.8622 31.8681 41.7288 31.858 41.5941C31.865 41.4682 31.8269 41.3439 31.7507 41.2437C31.6745 41.1436 31.5651 41.0743 31.4425 41.0484C31.4502 40.9911 31.4502 40.9329 31.4425 40.8756C31.4625 40.8052 31.466 40.7311 31.4527 40.6591C31.4394 40.5872 31.4096 40.5193 31.3659 40.4608C31.3221 40.4024 31.2654 40.355 31.2004 40.3223C31.1353 40.2897 31.0636 40.2727 30.9909 40.2727C30.9182 40.2727 30.8465 40.2897 30.7814 40.3223C30.7164 40.355 30.6597 40.4024 30.6159 40.4608C30.5721 40.5193 30.5424 40.5872 30.5291 40.6591C30.5158 40.7311 30.5193 40.8052 30.5393 40.8756C30.5315 40.9329 30.5315 40.9911 30.5393 41.0484C30.4166 41.0743 30.3073 41.1436 30.2311 41.2437C30.1548 41.3439 30.1168 41.4682 30.1238 41.5941C30.1136 41.7288 30.1561 41.8622 30.2422 41.9658C30.3282 42.0694 30.451 42.1351 30.5844 42.149C30.6322 42.1579 30.6812 42.1579 30.7289 42.149V43.004H29.085C29.0152 42.6641 28.9123 42.3321 28.7779 42.0125C28.1908 40.6118 26.7546 40.7482 26.8178 42.058C26.8178 42.7584 27.3417 42.8675 27.6669 42.6674C27.9921 42.4673 28.0553 42.0125 28.1366 42.1763C29.3108 44.5957 28.2901 46.5785 25.8965 48.7615C25.9929 49.2741 26.2109 49.7557 26.5319 50.1652C26.8529 50.5748 27.2675 50.9001 27.7403 51.1136C28.2131 51.3271 28.7301 51.4224 29.2473 51.3913C29.7645 51.3603 30.2666 51.2038 30.7109 50.9353V51.0536C30.467 52.7271 28.6063 53.2001 27.7572 53.5457H31.2528ZM30.1238 50.4351C29.8324 50.5863 29.5111 50.6702 29.1835 50.6806C28.8558 50.691 28.53 50.6276 28.2297 50.4952C27.9295 50.3627 27.6623 50.1645 27.4477 49.9149C27.2332 49.6654 27.0766 49.3707 26.9894 49.0525C27.4501 48.5432 29.4373 46.2602 29.1753 43.5133H30.7109V47.4244C30.5362 47.3816 30.3539 47.3815 30.1791 47.424C30.0043 47.4665 29.8422 47.5504 29.7061 47.6687C29.5701 47.787 29.464 47.9364 29.3968 48.1043C29.3296 48.2722 29.3033 48.4539 29.3199 48.6341C29.3199 48.6796 30.0967 47.4426 30.7109 48.7342V49.1162C30.6092 48.9969 30.4677 48.919 30.313 48.8973C30.1584 48.8755 30.0012 48.9113 29.8708 48.9979C29.5547 49.2435 29.8166 50.1713 30.2141 50.3623L30.1238 50.4351Z" fill="#A6763C"/>
</g>
<defs>
<clipPath id="clip0_2257_2756">
<rect width="62" height="54" fill="white"/>
</clipPath>
</defs>
</svg>
